# xmcd
#
# Track frame offsets: 
#        150
#        18382
#        37945
#        55480
#        74815
#        95462
#        114515
#        139432
#        149660
#
# Disc length: 2265 seconds
#
# Revision: 1
# Processed by: cddbd v1.5.2PL0 Copyright (c) Steve Scherf et al.
# Submitted via: ExactAudioCopy v0.99pb4
#
DISCID=8c08d709
DTITLE=이승환 - Always
DYEAR=1993
DGENRE=Pop
TTITLE0=세상에 뿌려진 사랑만큼
TTITLE1=먼 시간속에 추억
TTITLE2=하숙생
TTITLE3=슬픔에 관하여
TTITLE4=나는 나일 뿐
TTITLE5=이 밤을 뒤로
TTITLE6=사랑하는걸
TTITLE7=아무래도 좋아
TTITLE8=이 세상은......
EXTD=
EXTT0=
EXTT1=
EXTT2=
EXTT3=
EXTT4=
EXTT5=
EXTT6=
EXTT7=
EXTT8=
PLAYORDER=
